<svg width="119" height="46" viewBox="0 0 119 46" fill="none" xmlns="http://www.w3.org/2000/svg">
<path d="M1.77091 19.95C2.24145 17.1268 3.54645 14.4014 9.47595 13.3289C15.4687 12.2449 23.1737 13.9572 24.0298 16.7533C24.886 19.3217 22.3176 22.5184 20.6054 22.5183C18.8932 22.5184 15.6076 20.806 12.9003 20.8061C12.0442 20.8061 10.3321 20.7218 10.3321 22.7461C10.3321 23.6023 12.3909 24.1239 13.7565 24.2306C17.4031 24.5154 21.3224 26.2802 22.3176 27.0267C26.2908 30.007 26.2835 35.4479 25.7421 37.0723C24.886 39.6406 23.2784 41.6425 21.4915 42.536C19.7793 43.3921 16.7224 44.7773 12.0443 44.7773C8.61999 44.7773 0.914758 42.8372 0.0586777 39.6406C-0.384261 37.9867 1.77085 34.5039 3.48308 33.6478C5.6489 32.5649 9.47818 36.1078 12.0442 36.2162C17.438 36.444 16.7953 33.9321 15.4687 33.6478C11.4735 32.7917 8.61983 32.7917 5.19537 30.2234C3.38473 28.8654 0.914793 25.0867 1.77091 19.95Z" fill="white"/>
<path d="M61.0014 34.8099L61.5344 3.73318C61.5344 -1.62221 71.5722 -0.851677 71.5722 3.73316C71.2681 14.4311 71.4846 31.5811 71.5722 33.7233C71.6599 35.8654 73.8846 34.4645 75.4834 35C77.0822 35.5355 77.4828 36.2973 77.4834 40C77.484 43.7027 75.4834 45.5 69.9834 45C64.4834 44.5 63.7109 43.6883 62.1849 41.2208C60.9114 39.1616 61.0014 36.2771 61.0014 34.8099Z" fill="white"/>
<path d="M111.532 28.2662C111.532 37.2498 104.25 44.5324 95.2662 44.5324C86.2826 44.5324 79 37.2498 79 28.2662C79 19.2826 86.2826 12 95.2662 12C104.25 12 111.532 19.2826 111.532 28.2662ZM89.0276 28.2662C89.0276 31.7116 91.8207 34.5047 95.2662 34.5047C98.7116 34.5047 101.505 31.7116 101.505 28.2662C101.505 24.8207 98.7116 22.0276 95.2662 22.0276C91.8207 22.0276 89.0276 24.8207 89.0276 28.2662Z" fill="white"/>
<circle cx="115.996" cy="41.9964" r="2.9964" fill="#5FCF2D"/>
<circle cx="43.2664" cy="26.5542" r="9.41727" fill="#5FCF2D"/>
<path d="M59.5324 28.2662C59.5324 37.2498 52.2498 44.5324 43.2662 44.5324C34.2826 44.5324 27 37.2498 27 28.2662C27 19.2826 34.2826 12 43.2662 12C52.2498 12 59.5324 19.2826 59.5324 28.2662ZM37.0276 28.2662C37.0276 31.7116 39.8207 34.5047 43.2662 34.5047C46.7116 34.5047 49.5047 31.7116 49.5047 28.2662C49.5047 24.8207 46.7116 22.0276 43.2662 22.0276C39.8207 22.0276 37.0276 24.8207 37.0276 28.2662Z" fill="white"/>
</svg>
